<?xml version="1.0" encoding="utf-8"?>
<!-- Generator: Adobe Illustrator 21.0.0, SVG Export Plug-In . SVG Version: 6.00 Build 0)  -->
<svg version="1.1" id="Camada_1" xmlns="http://www.w3.org/2000/svg" xmlns:xlink="http://www.w3.org/1999/xlink" x="0px" y="0px"
	 viewBox="0 0 97.8 25" style="enable-background:new 0 0 97.8 25;" xml:space="preserve">
<style type="text/css">
	.st0{fill:#D3F2CC;}
	.st1{opacity:0.18;clip-path:url(#SVGID_4_);}
	.st2{fill:#FFFFFF;}
	.st3{opacity:0.18;clip-path:url(#SVGID_6_);}
	.st4{opacity:0.18;clip-path:url(#SVGID_8_);}
	.st5{opacity:0.18;clip-path:url(#SVGID_10_);}
	.st6{opacity:0.18;clip-path:url(#SVGID_12_);}
	.st7{opacity:0.18;clip-path:url(#SVGID_14_);}
	.st8{opacity:0.18;clip-path:url(#SVGID_18_);}
	.st9{opacity:0.18;clip-path:url(#SVGID_20_);}
	.st10{opacity:0.18;clip-path:url(#SVGID_22_);}
	.st11{opacity:0.18;clip-path:url(#SVGID_24_);}
	.st12{opacity:0.18;clip-path:url(#SVGID_26_);}
	.st13{opacity:0.18;clip-path:url(#SVGID_28_);}
	.st14{opacity:0.18;clip-path:url(#SVGID_32_);}
	.st15{opacity:0.18;clip-path:url(#SVGID_34_);}
	.st16{opacity:0.18;clip-path:url(#SVGID_36_);}
	.st17{opacity:0.18;clip-path:url(#SVGID_38_);}
	.st18{opacity:0.18;clip-path:url(#SVGID_40_);}
	.st19{opacity:0.18;clip-path:url(#SVGID_42_);}
	.st20{opacity:0.18;clip-path:url(#SVGID_46_);}
	.st21{opacity:0.18;clip-path:url(#SVGID_48_);}
	.st22{opacity:0.18;clip-path:url(#SVGID_50_);}
	.st23{opacity:0.18;clip-path:url(#SVGID_52_);}
	.st24{opacity:0.18;clip-path:url(#SVGID_54_);}
	.st25{opacity:0.18;clip-path:url(#SVGID_56_);}
	.st26{opacity:0.18;clip-path:url(#SVGID_60_);}
	.st27{opacity:0.18;clip-path:url(#SVGID_62_);}
	.st28{opacity:0.18;clip-path:url(#SVGID_64_);}
	.st29{opacity:0.18;clip-path:url(#SVGID_66_);}
	.st30{opacity:0.18;clip-path:url(#SVGID_68_);}
	.st31{opacity:0.18;clip-path:url(#SVGID_70_);}
	.st32{opacity:0.18;clip-path:url(#SVGID_74_);}
	.st33{opacity:0.18;clip-path:url(#SVGID_76_);}
	.st34{opacity:0.18;clip-path:url(#SVGID_78_);}
	.st35{opacity:0.18;clip-path:url(#SVGID_80_);}
	.st36{opacity:0.18;clip-path:url(#SVGID_82_);}
	.st37{opacity:0.18;clip-path:url(#SVGID_84_);}
	.st38{fill:#D35E8A;}
	.st39{fill:#F2CFD3;}
	.st40{opacity:0.18;clip-path:url(#SVGID_88_);}
	.st41{opacity:0.18;clip-path:url(#SVGID_90_);}
	.st42{opacity:0.18;clip-path:url(#SVGID_92_);}
	.st43{opacity:0.18;clip-path:url(#SVGID_94_);}
	.st44{opacity:0.18;clip-path:url(#SVGID_96_);}
	.st45{opacity:0.18;clip-path:url(#SVGID_98_);}
	.st46{opacity:0.18;clip-path:url(#SVGID_100_);}
	.st47{opacity:0.18;clip-path:url(#SVGID_102_);}
	.st48{opacity:0.18;clip-path:url(#SVGID_104_);}
	.st49{opacity:0.18;clip-path:url(#SVGID_106_);}
	.st50{opacity:0.43;fill:#FFFFFF;}
	.st51{fill:#AFAFAF;}
	.st52{opacity:0.18;clip-path:url(#SVGID_108_);}
	.st53{opacity:0.18;clip-path:url(#SVGID_110_);}
	.st54{opacity:0.18;clip-path:url(#SVGID_114_);}
	.st55{fill:#9FD692;}
	.st56{opacity:0.18;clip-path:url(#SVGID_118_);}
	.st57{opacity:0.18;clip-path:url(#SVGID_120_);}
	.st58{opacity:0.18;clip-path:url(#SVGID_122_);}
	.st59{opacity:0.18;clip-path:url(#SVGID_124_);}
	.st60{opacity:0.18;clip-path:url(#SVGID_126_);}
	.st61{opacity:0.18;clip-path:url(#SVGID_128_);}
</style>
<g>
	<path class="st2" d="M16.6,12c-1.2,2.1-2.8,4.8-4.3,6.7c-1.8,2.1-4.6,3.3-6.8,3.1c-4.8-0.6-3.8-7.1-2.5-11.1c-1.9,0-2.9-2-2.8-4.1
		C0.2,4.8,1,2.3,2.4,2C2.8,2,2.9,2.3,2.9,2.5c0,0.1,0,0.2-0.1,0.2c-0.1,0-0.1,0-0.2,0c0,0-0.1,0-0.1,0C1.7,2.8,1.1,4.5,0.9,5.7
		c0,1.8,0.8,3.6,2.5,3.5c1.5-3.7,4.9-8.9,9.4-8.9c0.9,0,1.7,0.4,2.3,1.2c0.7,1.1,1.1,2.6,1,3.9c-0.1,1.4-0.6,2.6-1.8,2.8
		c-0.9,0.1-2.1-0.4-2.2-1.8C11.1,7.7,9.1,9.2,6.8,10c-0.6,1.7-1.1,3.5-1.3,5.3c0,0.3,0,0.6,0,0.8c-0.2,1.5,0.3,3.2,1.5,3.8
		c1.5,0.8,3.3-0.4,4.6-1.6c1.6-1.8,3.2-4.5,4.3-6.4h0l0.5-0.9c0.2-0.2,0.4-0.1,0.6,0.2L16.6,12z M12.8,5.7c-0.1,1.1,0.5,2.1,1.4,2
		C14.7,7.6,15,6.9,15,6c0.1-2.1-0.8-4.8-2.5-4.6c-1.9,0.4-3.9,3.9-5.2,7.2c1.9-0.7,4-1.8,5.1-3.6c0.4-0.4,0.6,0,0.5,0.3
		C12.8,5.4,12.8,5.6,12.8,5.7z"/>
	<path class="st2" d="M21.8,5.1c-0.2,2.2-2,4.5-3.7,6c0,0-0.4,1.4-0.5,2.7c0,0.2,0,0.4,0,0.6c0,0.8,0.2,1.4,0.7,1.4
		c1.3,0,2.7-2.8,3.4-4.3c0.2-0.4,0.4-0.8,0.5-0.9c0.1,0,0.1-0.1,0.2-0.1c0.1,0,0.2,0.1,0.3,0.2l-0.4,0.8h0c-1,2.2-2.5,5.2-4.3,5.2
		c-1.6,0-2-1.5-2-2.9c0-0.2,0-0.5,0-0.7v0c0.2-2.3,1.9-10.1,4.8-10.1C21.6,3.3,21.9,4.4,21.8,5.1z M18.4,10.1
		c0.7-0.6,2.7-2.9,2.8-4.8c0-0.4,0-1-0.3-1C20.4,4.2,19.2,6.8,18.4,10.1z"/>
	<path class="st2" d="M28.2,11.1c0,0-0.2,0.1-0.3,0.1c-0.1,0-0.2,0-0.3-0.1c0.1-0.2,0.1-0.3,0.1-0.5c0-0.8-0.3-1.9-1.2-1.9
		c-1.7,0-3.6,4.5-3.8,5.9c0,0.5,0,1.1,0.6,1.1c1,0,2.3-2.3,2.9-3.5c0-0.2,0.2-0.4,0.2-0.7c0-0.2,0.2-0.3,0.5-0.3
		c1,0.1,1.3,0.5,1.3,1c0,0.5-0.2,1.2-0.3,1.7c-0.1,0.3-0.4,2.3,0.2,1.7c0.8-0.8,1.8-2.6,2.5-3.9c0.2-0.4,0.4-0.8,0.5-1
		c0.1,0,0.1,0,0.2,0c0.1,0,0.2,0.1,0.3,0.2l-0.1,0.3c-0.7,1.4-2.1,4.3-3.3,5.2c-0.3,0.3-0.8,0.5-1.3,0.5c-1.2,0-1.3-1.9-1.1-2.7
		c0,0,0,0,0-0.1c-0.9,1.5-2.2,2.9-3.5,2.9c-1.3,0-1.7-1-1.7-2.1c0-0.1,0-0.2,0-0.4c0.3-2.5,2.7-6.9,5.5-6.9c1.4,0,2.3,1.5,2.2,2.9
		C28.3,10.6,28.2,10.8,28.2,11.1L28.2,11.1z"/>
	<path class="st2" d="M30.2,19.3c-1.2-0.3-2.5-0.5-4-0.5c-1.2,0-2.6,0.1-4,0.3c-3.9,0.6-7.7,2.2-9,5.1c0,0,0,0.1-0.1,0.1
		C13.1,24.6,13,25,12.7,25c-0.3,0-0.5-0.4-0.7-0.9c-0.1-0.3-0.1-0.6-0.1-0.8c0-1.4,1-2.7,2.1-3.6c1.9-1.4,5.1-2.2,8-2.4
		c0.8-0.1,1.6-0.1,2.3-0.1c2.2,0,4.4,0.3,6.1,1.1c0.5-3,1.4-5.2,2.1-7c0.1-0.3,0.2-0.7,0.4-1c-0.1,0-0.3,0-0.4,0c-0.1,0-0.3,0-0.5,0
		L31.2,12c-0.3-0.1-0.4-0.1-0.5-0.1c0.3-0.6,0.6-1.1,0.8-1.7c-1.2-0.1-1.6-1.1-1.5-2.1c0.1-1.1,0.9-2.4,2.2-2.4c0.7,0,1,0.5,1,1.3
		c-0.1,0.8-0.5,1.9-0.6,2.3c0,0,0,0.1,0,0.1c0.2,0,0.4,0,0.7,0c0.1,0,0.3,0,0.4,0c0.1,0,0.3,0,0.4,0c0.3,0,0.5,0,0.7,0.1
		c0.2,0.1,0.3,0.3,0.3,0.6c0,0.8-0.6,2.2-0.9,3c-0.1,0.1-0.2,0.3-0.2,0.5c-0.6,1.8-1.4,3.8-1.7,5.4c0.4,0.3,0.7,0.5,1,0.8
		c0-1,0.6-1.7,1.3-2c0.3-0.1,0.6-0.2,0.9-0.2c1.2,0,1.9,0.9,1.9,2c0,1.1-1.1,2.4-3.1,2.9c-0.2,0-0.5,0.1-0.8,0.1
		C31.7,22.7,30.3,21.6,30.2,19.3z M31.8,9.3c0.1-0.3,0.6-1.4,0.7-2.1c0-0.2,0-0.3,0-0.3c-0.3,0-0.9,1-1,1.7
		C31.4,9.1,31.5,9.3,31.8,9.3z M33.3,21.3c-0.1-0.3-0.4-0.8-1.2-1.3c0.1,1,0.6,2.1,1.7,1.9c1.4-0.2,2.1-1.4,2.1-2.3
		c0-0.6-0.3-1-0.8-1c-0.1,0-0.2,0-0.4,0.1c-0.6,0.2-1.1,0.8-1.1,1.6c0,0.2,0,0.5,0.2,0.8l0,0c0.1,0.2,0,0.2-0.1,0.3
		C33.4,21.5,33.3,21.4,33.3,21.3L33.3,21.3z"/>
	<path class="st2" d="M42,11.1c0,0-0.2,0.1-0.3,0.1c-0.1,0-0.2,0-0.3-0.1c0.1-0.2,0.1-0.3,0.1-0.5c0-0.8-0.3-1.9-1.2-1.9
		c-1.7,0-3.6,4.5-3.8,5.9c0,0.5,0,1.1,0.6,1.1c1,0,2.3-2.3,2.9-3.5c0-0.2,0.2-0.4,0.2-0.7c0-0.2,0.2-0.3,0.5-0.3
		c1,0.1,1.3,0.5,1.3,1c0,0.5-0.2,1.2-0.3,1.7c-0.1,0.3-0.4,2.3,0.2,1.7c0.8-0.8,1.8-2.6,2.5-3.9c0.2-0.4,0.4-0.8,0.5-1
		c0.1,0,0.1,0,0.2,0c0.1,0,0.2,0.1,0.3,0.2l-0.1,0.3c-0.7,1.4-2.1,4.3-3.3,5.2c-0.3,0.3-0.8,0.5-1.3,0.5c-1.2,0-1.3-1.9-1.1-2.7
		c0,0,0,0,0-0.1c-0.9,1.5-2.2,2.9-3.5,2.9c-1.3,0-1.7-1-1.7-2.1c0-0.1,0-0.2,0-0.4c0.3-2.5,2.7-6.9,5.5-6.9c1.4,0,2.3,1.5,2.2,2.9
		C42.1,10.6,42.1,10.8,42,11.1L42,11.1z"/>
	<path class="st2" d="M59.8,12.7c-0.8,0.4-1.4,1-1.8,1.9c-0.1,0.1-0.3,0-0.3-0.2c0.2-1.5,1.1-2.6,2.2-3.1c0-0.4,0-0.8,0-1.3
		c0-0.1,0-0.2,0-0.3c0-0.1,0-0.2,0-0.3c0-0.2,0-0.4,0-0.6c0-0.6,0.1-1.3,0.1-2c-0.5,0.3-1.5,0.6-2.3,0.6c-0.6,0-1.1-0.2-1.3-0.8
		c0-0.1,0-0.3,0-0.4c0-1.2,1.3-2.4,2.5-2.6c0.1,0,0.2,0,0.2,0c0.1,0,0.3,0,0.4,0c0.8,0,1.6,0.3,2.2,0.8c1.6-0.5,3.5-0.9,5.4-1.3
		c2.7-0.6,5.7-1.2,8-2.1h0c0.3-0.1,1.3-0.4,1.4-0.8c0-0.1,0-0.1,0-0.2c0-0.1,0-0.1,0.1-0.2h0C76.8,0,77,0,77,0.2
		c0.3,0.6-0.9,1.4-1.3,1.7C73,3.5,68.4,4.6,65.4,5.3l-0.6,0.1c-0.9,0.2-1.7,0.4-2.2,0.6c0,0.2,0,0.4,0,1.1c0,0.6,0,1.6-0.1,3.6
		c0,0,0.1,0,0.2,0c0,0,0.1,0,0.1,0h0c1.5-0.3,3.2-0.6,4-1.5c0.2-0.2,0.3,0.1,0.3,0.3c-0.2,1.5-2.1,2.1-4,2.5l-0.4,0.1
		c-0.1,0-0.2,0.1-0.4,0.1v0.3c0,0,0,0,0,0.1v0h0c-0.3,3.4-1.1,7.6-3.9,9.9c-0.9,0.7-2.3,1.1-3.5,1.1h-0.5c-2.8-0.4-4.4-2.7-4.4-5.7
		c0-2.3,1.2-4.7,3.3-5.5c0.3-0.1,0.7-0.1,0.9-0.1c1.5,0,2.1,1.4,2.1,2.9c0,0.6,0,1-0.1,1.3v0c-0.2,0.4-0.4,0.3-0.5,0.3
		c0-0.1,0-0.1,0-0.2v-0.8c0,0,0-0.1,0-0.2c0-1-0.1-2.1-1-2.1c-1.2-0.1-2.5,2.2-2.9,4.4c-0.1,0.4-0.1,0.7-0.1,0.9
		c0,2.1,1.1,3.9,2.6,4c3.1-0.2,4.5-4.4,5.1-7.7C59.7,14.1,59.8,13.4,59.8,12.7L59.8,12.7z M59.9,5.2c0-0.6-0.4-0.8-0.7-0.8
		c-0.6,0-1.5,0.6-1.6,1.4c0,0.2,0.7,0,1.2-0.2L59,5.6C59.5,5.4,59.9,5.3,59.9,5.2L59.9,5.2z"/>
	<path class="st2" d="M73.1,11.1c0,0-0.2,0.1-0.3,0.1c-0.1,0-0.2,0-0.3-0.1c0.1-0.2,0.1-0.3,0.1-0.5c0-0.8-0.3-1.9-1.2-1.9
		c-1.7,0-3.6,4.5-3.8,5.9c0,0.5,0,1.1,0.6,1.1c1,0,2.3-2.3,2.9-3.5c0-0.2,0.2-0.4,0.2-0.7c0-0.2,0.2-0.3,0.5-0.3
		c1,0.1,1.3,0.5,1.3,1c0,0.5-0.2,1.2-0.3,1.7c-0.1,0.3-0.4,2.3,0.2,1.7c0.8-0.8,1.8-2.6,2.5-3.9c0.2-0.4,0.4-0.8,0.5-1
		c0.1,0,0.1,0,0.2,0c0.1,0,0.2,0.1,0.3,0.2l-0.1,0.3c-0.7,1.4-2.1,4.3-3.3,5.2c-0.3,0.3-0.8,0.5-1.3,0.5c-1.2,0-1.3-1.9-1.1-2.7
		c0,0,0,0,0-0.1c-0.9,1.5-2.1,2.9-3.5,2.9c-1.3,0-1.7-1-1.7-2.1c0-0.1,0-0.2,0-0.4c0.3-2.5,2.7-6.9,5.5-6.9c1.4,0,2.3,1.5,2.2,2.9
		C73.2,10.6,73.2,10.8,73.1,11.1L73.1,11.1z"/>
	<path class="st2" d="M86.3,10.7c0.3-0.2,0.4,0,0.5,0.1l-3.2,5.7c0,0.1,0,0.2,0,0.3c0,0.1-0.1,0.2-0.2,0.2c-0.5-0.5-1.3-0.6-2.2-0.6
		c-0.6,0-1.3,0-1.9,0.1c-0.6,0-1.2,0.1-1.6,0.1c-0.4,0-0.8,0-1-0.1c-0.4-0.1-0.6-0.4-0.6-0.7c0-0.3,0.1-0.7,0.5-1.1
		c1.6-2,4.9-4.4,6.4-5.6l0.5-0.4c-0.1,0-0.2,0-0.4,0c-0.3,0-0.7,0-1.1,0.1c-0.5,0-1.2,0.1-1.7,0.1c-0.9,0-1.7-0.1-2.2-0.5L76.1,12
		c-0.2,0.1-0.4,0.1-0.6-0.1l2.2-4.1c0-0.2,0.1-1.2,0.4-1.1c0.1,0,0.1,0.1,0.2,0.2l0,0.1c0.2,0.3,1,0.4,1.9,0.4c0.7,0,1.3,0,1.9-0.1
		c0.4,0,0.7,0,1,0c0.9,0,1.9,0.5,1.7,1.5c0,0.1-0.1,0.2-0.2,0.2c0,0-0.1,0-0.2-0.1l0,0c-2.4,1.3-5.1,4-6.8,6.2
		c0.1,0,0.3,0.1,0.6,0.1c0.3,0,0.8,0,1.3-0.1c0.6,0,1.2-0.1,1.8-0.1c0.6,0,1.2,0,1.5,0.2c0.2,0.1,0.4,0.3,0.6,0.5
		C83.6,15.4,83.8,14.9,86.3,10.7L86.3,10.7z"/>
	<path class="st2" d="M95.7,15c0,0.6,0,1.1,0.1,1.3c0,0.1,0,0.2,0,0.2c0,0.1-0.2,0.1-0.3,0.1c-1.2-0.2-1.6-1.7-1.5-3
		c0.1-1.2,0.6-3.4,1.1-5.4c0.3-1.1,0.5-1.9,0.6-2.7c-0.5,0.7-1,1.3-1.4,1.7c-0.5,0.5-1.1,1-1.6,1c-0.2,0-0.4-0.1-0.5-0.3v0
		c0,0,0,0,0-0.1c0-0.1,0-0.1,0-0.1v0c0,0,0.1-0.1,0.2-0.1c0.1-0.1,0.4-0.3,0.7-0.6c0.5-0.6,0.9-1,1.3-1.5L96,3.4
		c0.1-0.2,0.2-0.2,0.4-0.2c0.6,0,1,0.3,1.2,0.7c0.2,0.4,0.2,0.9,0.1,1.5c-0.1,0.9-0.3,1.9-0.5,2.4l-0.5,2.1
		c-0.2,0.8-0.4,1.6-0.6,2.4C96,13.2,95.8,13.9,95.7,15z"/>
</g>
</svg>
